<svg xmlns="http://www.w3.org/2000/svg" version="1.0" width="719" height="378" viewBox="0 0 7190 3780"><g style="fill:#ff4b4b;fill-opacity:1"><path d="M1345 3759c-74-26-146-78-184-133-16-22-53-104-84-181C809 2767 27 770 11 721c-16-48 11-102 57-115 29-8 47-2 175 62 78 39 313 162 522 272 209 111 643 340 965 510 2781 1465 4197 2214 4224 2233 17 12 11 17-62 55-80 42-80 42-2284 42-2198-1-2203-1-2263-21zM5765 3391c-132-70-526-279-875-463-585-309-2402-1268-2442-1289-19-10-20-9 676-1039C3500 42 3518 18 3558 6c22-6 45-5 73 3 53 16 52 14 678 946 288 429 531 789 541 800 31 36 1170 1744 1170 1755 0 5-3 10-7 10-5-1-116-58-248-129zM6117 3348c-59-78-1097-1644-1097-1655 0-6 100-64 223-128 122-65 499-264 837-443 1038-549 1025-543 1077-507s46 60-145 545c-188 481-592 1512-737 1883-133 339-133 339-158 305z" style="fill:#ff4b4b;fill-opacity:1"/></g></svg>