<?xml version="1.0" encoding="UTF-8" standalone="no"?>
<svg
   xmlns:dc="http://purl.org/dc/elements/1.1/"
   xmlns:cc="http://creativecommons.org/ns#"
   xmlns:rdf="http://www.w3.org/1999/02/22-rdf-syntax-ns#"
   xmlns:svg="http://www.w3.org/2000/svg"
   xmlns="http://www.w3.org/2000/svg"
   viewBox="0 0 1066.825 240.6125"
   height="240.6125"
   width="1066.825"
   xml:space="preserve"
   version="1.1"
   id="svg2"><metadata
     id="metadata8"><rdf:RDF><cc:Work
         rdf:about=""><dc:format>image/svg+xml</dc:format><dc:type
           rdf:resource="http://purl.org/dc/dcmitype/StillImage" /></cc:Work></rdf:RDF></metadata><defs
     id="defs6"><clipPath
       id="clipPath18"
       clipPathUnits="userSpaceOnUse"><path
         id="path20"
         d="M 0,1924.94 0,0 l 8534.63,0 0,1924.94 -8534.63,0 z" /></clipPath></defs><g
     transform="matrix(1.25,0,0,-1.25,0,240.6125)"
     id="g10"><g
       transform="scale(0.1,0.1)"
       id="g12"><g
         id="g14"><g
           clip-path="url(#clipPath18)"
           id="g16"><path
             id="path22"
             style="fill:#ffffff;fill-opacity:1;fill-rule:evenodd;stroke:none"
             d="m 962.434,25.6484 c -516.543,0 -936.7856,420.2736 -936.7856,936.8556 0,516.546 420.2426,936.786 936.7856,936.786 516.556,0 936.806,-420.24 936.806,-936.786 0,-516.582 -420.25,-936.8556 -936.806,-936.8556" /><path
             id="path24"
             style="fill:#14171a;fill-opacity:1;fill-rule:nonzero;stroke:none"
             d="M 962.434,1924.94 C 431.742,1924.94 0,1493.19 0,962.504 0,431.781 431.742,0 962.434,0 c 530.696,0 962.456,431.781 962.456,962.504 0,530.686 -431.76,962.436 -962.456,962.436 l 0,0 z m 0,-51.3 c 503.206,0 911.156,-407.99 911.156,-911.136 0,-503.266 -407.95,-911.2032 -911.156,-911.2032 -503.192,0 -911.1371,407.9372 -911.1371,911.2032 0,503.146 407.9451,911.136 911.1371,911.136" /><path
             id="path26"
             style="fill:#9cd976;fill-opacity:1;fill-rule:evenodd;stroke:none"
             d="m 1714.77,561.77 -61.64,-73.36 -61.58,-55.898 -58.56,-32.032 -55.39,-14.449 -52.72,2.828 -49.68,14.762 -49.99,28.891 -46.75,41.179 -46.72,50 -41.05,55.418 -40.94,61.621 -40.84,64.309 -38.33,67.133 -37.95,64.66 -34.903,64.398 -35.293,61.274 -35.25,61.606 -34.954,64.4 -37.949,67.31 -41.097,64.32 -37.95,67.51 -44.164,61.3 -43.836,55.7 -43.734,49.72 -46.984,38.02 -49.625,29.38 -52.782,17.37 -52.64,0 -55.778,-14.61 -58.503,-32.14 -61.25,-52.83 -61.528,-75.99 -23.375,-46.84 -20.508,-46.88 -14.746,-46.83 -14.664,-49.75 -11.703,-49.55 -8.57,-52.67 -3.071,-52.76 -3.132,-55.786 6.203,-87.684 11.574,-84.89 20.645,-82.149 29.128,-79.07 35.153,-72.891 43.832,-70.461 49.621,-67.129 55.773,-58.421 61.219,-56.047 64.891,-49.461 70.101,-43.91 75.934,-35.141 79.094,-29.52 81.796,-20.468 84.875,-11.66 87.954,-5.852 61.596,3.219 58.54,5.703 58.61,8.59 55.36,14.687 55.91,17.852 52.24,20.07 49.98,26.52 49.66,29.418 49.99,29.023 43.75,35.27 43.86,37.918 38.04,38.121 37.91,44.089 35.25,43.872 32.23,46.796 29.41,49.653 0,3.219" /><path
             id="path28"
             style="fill:#5ec9ce;fill-opacity:1;fill-rule:evenodd;stroke:none"
             d="m 546.891,1521.77 49.625,-29.38 46.984,-38.02 43.734,-49.72 43.836,-55.7 44.164,-61.3 37.95,-67.51 41.097,-64.32 37.949,-67.31 34.954,-64.4 35.25,-61.606 35.293,-61.274 34.903,-64.398 37.95,-64.66 38.33,-67.133 40.84,-64.309 40.94,-61.621 41.05,-55.418 46.72,-50 46.75,-41.179 49.99,-28.891 49.68,-14.762 52.72,-2.828 55.39,14.449 58.56,32.032 61.58,55.898 61.64,73.36 0,-3.219 0,3.219 23.19,46.671 20.59,46.739 14.71,46.84 14.44,50.011 12.08,49.598 8.44,52.68 3,52.703 2.85,55.492 -2.85,87.996 -14.67,84.8 -20.59,81.88 -28.9,79.03 -35.4,76.34 -43.8,70.14 -46.88,64.29 -55.48,61.66 -61.58,55.47 -64.39,49.66 -70.13,44.14 -76.27,34.89 -75.93,29.49 -82.27,20.56 -84.91,11.63 -87.586,5.86 -61.528,-2.86 -58.644,-6.15 -58.457,-8.48 -58.5,-14.78 -55.543,-17.44 -52.649,-23.64 -52.758,-23.27 -49.597,-29.36 -46.903,-32.23 -46.914,-34.96 -43.828,-38.2 -40.996,-38.13 -37.996,-43.86 -32.183,-46.81 -32.239,-46.85 -29.289,-49.75 0,0 61.528,75.99 61.25,52.83 58.503,32.14 55.778,14.61 52.64,0" /><path
             id="path30"
             style="fill:#14171a;fill-opacity:1;fill-rule:evenodd;stroke:none"
             d="m 2680.34,1400.53 c -56.93,-27.84 -91.87,-44.4 -143.59,-44.4 -82.5,0 -141.18,51.42 -141.18,123.61 0,71.56 59.27,122.41 143.54,122.41 48.9,0 92.98,-16.58 136.53,-41.41 l 0,89.9 c -38.89,23.65 -88.31,35.49 -143.62,35.49 -151.59,0 -238.07,-100.56 -238.07,-208.19 0,-104.02 76.65,-205.85 230.5,-205.85 58.87,0 100.63,11.35 155.89,40.29 l 0,88.15" /><path
             id="path32"
             style="fill:#14171a;fill-opacity:1;fill-rule:evenodd;stroke:none"
             d="m 2811.05,1444.75 c 3.45,38.04 24.9,59.79 58.06,59.79 32.6,0 54.69,-22.48 58.16,-59.79 l -116.22,0 0,0 z m 185.94,-82.68 c -39.55,-28.96 -65.67,-39.1 -99.36,-39.1 -52.88,0 -85.4,28.53 -88.31,76.99 l 192.32,0 c 4,99.26 -60.53,155.46 -138.25,155.46 -82.48,0 -141.25,-59.2 -141.25,-142.44 0,-85.19 60.98,-140.89 155.17,-140.89 20.83,0 71.44,0 119.68,36.18 l 0,53.8" /><path
             id="path34"
             style="fill:#14171a;fill-opacity:1;fill-rule:evenodd;stroke:none"
             d="m 3130.6,1550.09 -84.17,0 0,-272.63 84.17,0 0,175.61 c 22.11,33.73 37.83,45.04 58.63,45.04 23.92,0 41.93,-16.05 41.93,-54.4 l 0,-166.25 84.2,0 0,173.29 c 0,80.39 -55.69,104.67 -97.53,104.67 -34.34,0 -60.55,-13.03 -87.23,-44.3 l 0,38.97" /><path
             id="path36"
             style="fill:#14171a;fill-opacity:1;fill-rule:evenodd;stroke:none"
             d="m 3566.8,1550.09 -97.49,0 0,85.79 -10.3,0 -112.3,-127.78 0,-16.51 38.43,0 0,-117.15 c 0,-76.24 48.28,-102.35 103.98,-102.35 26.09,0 48.21,4.75 77.68,17.25 l 0,62.16 c -22.5,-11.86 -38.76,-16.04 -56.2,-16.04 -26.16,0 -41.29,17.07 -41.29,43.79 l 0,112.34 97.49,0 0,58.5" /><path
             id="path38"
             style="fill:#14171a;fill-opacity:1;fill-rule:evenodd;stroke:none"
             d="m 3689.48,1550.09 -84.16,0 0,-272.63 84.16,0 0,117.73 c 18.63,50.29 38.35,79.76 69.24,79.76 13.46,0 27.84,-5.89 50.01,-20.06 l 23.19,75.65 c -24.33,18.46 -38.92,24.88 -55.76,24.88 -32.64,0 -60.48,-26.51 -85.34,-83.39 l -1.34,0 0,78.06" /><path
             id="path40"
             style="fill:#14171a;fill-opacity:1;fill-rule:evenodd;stroke:none"
             d="m 3919.09,1444.75 c 3.52,38.04 25.03,59.79 58.13,59.79 32.48,0 54.57,-22.48 58.07,-59.79 l -116.2,0 0,0 z m 185.85,-82.68 c -39.45,-28.96 -65.65,-39.1 -99.28,-39.1 -52.94,0 -85.34,28.53 -88.39,76.99 l 192.28,0 c 4.2,99.26 -60.32,155.46 -138.16,155.46 -82.53,0 -141.26,-59.2 -141.26,-142.44 0,-85.19 61.01,-140.89 155.16,-140.89 20.86,0 71.6,0 119.65,36.18 l 0,53.8" /><path
             id="path42"
             style="fill:#14171a;fill-opacity:1;fill-rule:evenodd;stroke:none"
             d="m 4407.06,1550.09 0,17.2 c 0,36.01 20.47,47.98 46.48,47.98 9.41,0 15.84,-0.73 37.9,-3.63 l 0,69.19 c -12.8,1.65 -34.98,5.3 -51.2,5.3 -68.02,0 -117.38,-42.1 -117.38,-122.43 l 0,-13.61 -38.39,0 0,-58.5 38.39,0 0,-214.13 84.2,0 0,214.13 38.44,0 0,58.5 -38.44,0 0,0" /><path
             id="path44"
             style="fill:#14171a;fill-opacity:1;fill-rule:evenodd;stroke:none"
             d="m 4688.85,1415.85 c 0,-59.72 -20.86,-92.88 -60.28,-92.88 -32.03,0 -61.69,20.76 -61.69,91.16 0,61.48 24.89,90.41 61.69,90.41 42.35,0 60.28,-35.48 60.28,-88.69 l 0,0 z m 90.15,-2.36 c 0,104.66 -84.76,141.93 -150.43,141.93 -79.14,0 -151.8,-48.52 -151.8,-141.29 0,-85.79 64.02,-142.04 151.8,-142.04 59.18,0 150.43,33.27 150.43,141.4 l 0,0" /><path
             id="path46"
             style="fill:#14171a;fill-opacity:1;fill-rule:evenodd;stroke:none"
             d="m 4910.86,1550.09 -84.21,0 0,-272.63 84.21,0 0,117.73 c 18.7,50.29 38.31,79.76 69.28,79.76 13.16,0 27.8,-5.89 49.88,-20.06 l 23.27,75.65 c -24.44,18.46 -38.99,24.88 -55.83,24.88 -32.57,0 -60.48,-26.51 -85.35,-83.39 l -1.25,0 0,78.06" /><path
             id="path48"
             style="fill:#14171a;fill-opacity:1;fill-rule:evenodd;stroke:none"
             d="m 2602.68,832.898 -192.59,0 0,97.067 179.93,0 0,73.805 -179.93,0 0,84.59 188.57,0 0,73.95 -286.86,0 0,-403.322 290.88,0 0,73.91" /><path
             id="path50"
             style="fill:#14171a;fill-opacity:1;fill-rule:evenodd;stroke:none"
             d="m 2885.75,833.449 c -37.1,-14.168 -55.01,-18.937 -75.3,-18.937 -47.92,0 -79.81,32.07 -79.81,80.488 0,47.902 32.48,78.668 82.84,78.668 20.74,0 46.16,-6.457 68.28,-18.344 l 0,63.766 c -27.89,10.75 -62.58,17.79 -89.64,17.79 -88.1,0 -151.1,-59.114 -151.1,-142.431 0,-85.211 60.72,-140.879 154.44,-140.879 28.44,0 56.63,5.981 90.29,18.461 l 0,61.418" /><path
             id="path52"
             style="fill:#14171a;fill-opacity:1;fill-rule:evenodd;stroke:none"
             d="m 3130.42,897.469 c 0,-59.848 -20.83,-92.949 -60.15,-92.949 -31.75,0 -61.31,20.761 -61.31,91.019 0,61.594 24.83,90.5 61.31,90.5 42.19,0 60.15,-35.441 60.15,-88.57 l 0,0 z M 3220.17,895 c 0,104.699 -84.59,141.88 -149.9,141.88 -78.63,0 -151.02,-48.36 -151.02,-141.341 0,-85.668 63.73,-141.969 151.02,-141.969 59.04,0 149.9,33.309 149.9,141.43 l 0,0" /><path
             id="path54"
             style="fill:#14171a;fill-opacity:1;fill-rule:evenodd;stroke:none"
             d="m 3350.86,1162.31 -83.89,0 0,-403.361 83.89,0 0,403.361" /><path
             id="path56"
             style="fill:#14171a;fill-opacity:1;fill-rule:evenodd;stroke:none"
             d="m 3615.26,897.469 c 0,-59.848 -20.83,-92.949 -60.16,-92.949 -31.82,0 -61.42,20.761 -61.42,91.019 0,61.594 24.86,90.5 61.42,90.5 42.19,0 60.16,-35.441 60.16,-88.57 l 0,0 z M 3704.97,895 c 0,104.699 -84.53,141.88 -149.87,141.88 -78.77,0 -151,-48.36 -151,-141.341 0,-85.668 63.58,-141.969 151,-141.969 58.98,0 149.87,33.309 149.87,141.43 l 0,0" /><path
             id="path58"
             style="fill:#14171a;fill-opacity:1;fill-rule:evenodd;stroke:none"
             d="m 3929.37,708.121 c 0,-18.383 -23.16,-34.402 -60.15,-34.402 -44.52,0 -68.93,11.293 -68.93,32.019 0,20.094 24.41,32.422 63.79,32.422 41.53,0 65.29,-10.578 65.29,-30.039 l 0,0 z m -115.71,222.938 c 0,27.832 20.83,49.675 48.63,49.675 28.98,0 48.04,-21.843 48.04,-46.679 0,-28.465 -21.38,-52.055 -48.04,-52.055 -26.62,0 -48.63,22.43 -48.63,49.059 l 0,0 z m 199.5,100.551 -158.5,0 c -95.94,0 -119.04,-65.63 -119.04,-99.262 0,-50.348 40.39,-78.766 74.58,-83.989 l 0,-1.269 c -15.61,-3.488 -48.55,-11.168 -48.55,-40.11 0,-19.539 14.36,-30.242 32.29,-35.601 l 0,-1.219 c -58.98,-15.371 -71.08,-45.019 -71.08,-67.988 0,-36.082 30.07,-79.274 142.32,-79.274 86.16,0 141.05,28.352 141.05,91.622 0,13.628 -3.98,34.921 -21.35,52.761 -43.98,45.629 -145.83,18.278 -145.83,49.617 0,31.942 77.6,3.622 125.04,52.09 14.47,14.723 24.29,35.442 24.29,59.668 0,16.035 -4.11,28.992 -13.37,45.645 l 38.15,0 0,57.309" /><path
             id="path60"
             style="fill:#14171a;fill-opacity:1;fill-rule:evenodd;stroke:none"
             d="m 4326.99,1031.61 -87.93,0 -60.3,-140.231 -56.08,140.231 -89.66,0 104.2,-228.258 -78.08,-175.071 88.97,0 178.88,403.329 0,0" /><path
             id="path62"
             style="fill:#14171a;fill-opacity:1;fill-rule:evenodd;stroke:none"
             d="m 4693.54,843.012 c -19.27,-13.59 -42.8,-22.492 -60.81,-22.492 -27.21,0 -49.76,21.3 -49.76,47.312 0,18.949 12.8,36 40.47,54.367 l 70.1,-79.187 0,0 z m -31.95,173.268 c -19.03,17.14 -33.5,39.02 -33.5,53.77 0,17.74 15.04,30.74 36.35,30.74 21.48,0 36.48,-14.16 36.48,-33.73 0,-19.4 -10.93,-33.64 -39.33,-50.78 l 0,0 z m 141.7,-47.917 c -12.01,-23.019 -27.14,-44.972 -45.07,-63.293 l -53.76,63.293 c 47.97,28.926 73.49,64.437 73.49,103.527 0,56.02 -46.84,95.69 -114.03,95.69 -70.02,0 -120.84,-43.72 -120.84,-104.07 0,-33.07 13.28,-56.72 35.86,-89.209 -60.78,-32.012 -88.53,-68.063 -88.53,-114.199 0,-60.993 53.18,-106.532 125,-106.532 44.55,0 84.44,11.918 123.74,37.45 l 28.85,-32.071 119.78,0 -79.19,88.781 c 31.22,28.379 56.09,66.11 79.19,120.633 l -84.49,0 0,0" /><path
             id="path64"
             style="fill:#14171a;fill-opacity:1;fill-rule:evenodd;stroke:none"
             d="m 5481.97,1162.31 -98.35,0 0,-162.01 -196.7,0 0,162.01 -98.29,0 0,-403.361 98.29,0 0,163.25 196.7,0 0,-163.25 98.35,0 0,403.361" /><path
             id="path66"
             style="fill:#14171a;fill-opacity:1;fill-rule:evenodd;stroke:none"
             d="m 5805.41,1031.61 -87.96,0 -60.15,-140.231 -56.17,140.231 -89.62,0 104.05,-228.258 -77.96,-175.071 89.05,0 178.76,403.329 0,0" /><path
             id="path68"
             style="fill:#14171a;fill-opacity:1;fill-rule:evenodd;stroke:none"
             d="m 6015.79,833.449 c -17.28,-15.828 -31.72,-22.34 -49.68,-22.34 -39.22,0 -64.07,33.032 -64.07,82.7 0,54.406 24.85,85.804 67.08,85.804 14.95,0 34.61,-7.09 46.67,-16.015 l 0,-130.149 z m 84.08,328.861 -84.08,0 0,-142.48 c -22.34,11.16 -44.91,17.05 -69.17,17.05 -76.49,0 -129.73,-57.845 -129.73,-141.341 0,-81.551 53.24,-141.969 125,-141.969 28.45,0 50.38,7.731 73.9,27.301 l 0,-21.883 84.08,0 0,403.322" /><path
             id="path70"
             style="fill:#14171a;fill-opacity:1;fill-rule:evenodd;stroke:none"
             d="m 6244.43,1031.61 -83.83,0 0,-272.661 83.83,0 0,117.821 c 18.58,50.089 38.23,79.765 68.87,79.765 13.21,0 27.75,-5.937 49.73,-20.176 l 23.15,75.681 c -24.33,18.4 -38.8,24.84 -55.55,24.84 -32.45,0 -60.16,-26.47 -85.02,-83.341 l -1.18,0 0,78.071" /><path
             id="path72"
             style="fill:#14171a;fill-opacity:1;fill-rule:evenodd;stroke:none"
             d="m 6606.38,897.469 c 0,-59.848 -20.82,-92.949 -60.2,-92.949 -31.94,0 -61.45,20.761 -61.45,91.019 0,61.594 24.93,90.5 61.45,90.5 42.18,0 60.2,-35.441 60.2,-88.57 l 0,0 z M 6696,895 c 0,104.699 -84.56,141.88 -149.82,141.88 -78.73,0 -151.03,-48.36 -151.03,-141.341 0,-85.668 63.65,-141.969 151.03,-141.969 59.02,0 149.82,33.309 149.82,141.43 l 0,0" /><path
             id="path74"
             style="fill:#14171a;fill-opacity:1;fill-rule:evenodd;stroke:none"
             d="m 6826.62,1162.31 -83.79,0 0,-403.361 83.79,0 0,403.361" /><path
             id="path76"
             style="fill:#14171a;fill-opacity:1;fill-rule:evenodd;stroke:none"
             d="m 7091.08,897.469 c 0,-59.848 -20.78,-92.949 -60.11,-92.949 -31.83,0 -61.5,20.761 -61.5,91.019 0,61.594 24.99,90.5 61.5,90.5 42.22,0 60.11,-35.441 60.11,-88.57 l 0,0 z M 7180.83,895 c 0,104.699 -84.47,141.88 -149.86,141.88 -78.66,0 -151.03,-48.36 -151.03,-141.341 0,-85.668 63.69,-141.969 151.03,-141.969 58.9,0 149.86,33.309 149.86,141.43 l 0,0" /><path
             id="path78"
             style="fill:#14171a;fill-opacity:1;fill-rule:evenodd;stroke:none"
             d="m 7405.27,708.121 c 0,-18.383 -23.14,-34.402 -60.15,-34.402 -44.59,0 -68.91,11.293 -68.91,32.019 0,20.094 24.32,32.422 63.69,32.422 41.62,0 65.37,-10.578 65.37,-30.039 l 0,0 z m -115.61,222.938 c 0,27.832 20.7,49.675 48.33,49.675 29.06,0 48.14,-21.843 48.14,-46.679 0,-28.465 -21.35,-52.055 -48.14,-52.055 -26.49,0 -48.33,22.43 -48.33,49.059 l 0,0 z m 199.41,100.551 -158.53,0 c -95.95,0 -119.13,-65.63 -119.13,-99.262 0,-50.348 40.47,-78.766 74.69,-83.989 l 0,-1.269 c -15.64,-3.488 -48.57,-11.168 -48.57,-40.11 0,-19.539 14.35,-30.242 32.31,-35.601 l 0,-1.219 c -58.97,-15.371 -71.12,-45.019 -71.12,-67.988 0,-36.082 30.13,-79.274 142.29,-79.274 86.24,0 141.22,28.352 141.22,91.622 0,13.628 -4.11,34.921 -21.4,52.761 -43.93,45.629 -145.87,18.278 -145.87,49.617 0,31.942 77.52,3.622 125,52.09 14.42,14.723 24.25,35.442 24.25,59.668 0,16.035 -4.07,28.992 -13.37,45.645 l 38.23,0 0,57.309" /><path
             id="path80"
             style="fill:#14171a;fill-opacity:1;fill-rule:evenodd;stroke:none"
             d="m 7808.93,1031.61 -88.03,0 -60.08,-140.231 -56.21,140.231 -89.66,0 104.05,-228.258 -78.04,-175.071 89.13,0 178.84,403.329 0,0" /><path
             id="path82"
             style="fill:#080b0a;fill-opacity:1;fill-rule:nonzero;stroke:none"
             d="m 430.992,692.441 c -91.637,0 -161.883,25.297 -208.906,75.02 -46.949,49.789 -70.648,113.418 -70.648,189.152 0,53.917 12.316,101.887 36.691,142.427 24.383,40.67 57.684,71.76 99.012,92.39 41.136,20.43 86.691,30.85 135.597,30.85 53.586,0 100.196,-12.47 138.778,-37.18 l 0,19.4 9.91,9.87 83.793,0 9.859,-9.87 0,-174.81 -9.859,-9.8 -83.793,0 -9.231,6.28 c -22.375,59.13 -59.871,87.77 -114.554,87.77 -45.586,0 -78.903,-14.87 -102.114,-45.67 -23.343,-31.02 -35.254,-68.938 -35.254,-112.7 0,-45.621 12.461,-82.769 36.946,-110.672 24.574,-27.769 54.867,-41.398 93.09,-41.398 30.859,0 57.367,10.219 80.589,31.32 23.438,21.11 39.321,51.012 47.676,88.95 l 13.906,6.781 97.672,-46.5 5.168,-11.949 C 646.949,752.91 561.309,692.441 430.992,692.441 l 0,0" /><path
             id="path84"
             style="fill:#ffffff;fill-opacity:1;fill-rule:nonzero;stroke:none"
             d="m 422.738,1202.42 c -45.789,0 -88.429,-9.62 -126.726,-28.7 -37.875,-18.9 -68.508,-47.4 -90.973,-84.9 -22.441,-37.5 -33.934,-81.97 -33.934,-132.207 0,-70.543 22.024,-129.523 65.266,-175.465 43.254,-45.699 108.606,-68.886 194.621,-68.886 119.457,0 195.711,51.558 232.715,157.668 l -78.762,37.468 c -9.863,-36.289 -26.879,-65.66 -50.746,-87.316 -26.687,-24.152 -58.304,-36.344 -93.89,-36.344 -43.539,0 -79.821,16.203 -107.914,48.102 -27.754,31.539 -41.891,73.23 -41.891,123.73 0,48 13.187,90.05 39.262,124.72 26.621,35.53 66.347,53.53 117.875,53.53 61.011,0 104.843,-31.69 130.519,-94.18 l 67.254,0 0,154.9 -64.031,0 0,-28.62 -15.977,-7.72 c -38.004,29.31 -85.968,44.22 -142.668,44.22 l 0,0" /><path
             id="path86"
             style="fill:#080b0a;fill-opacity:1;fill-rule:nonzero;stroke:none"
             d="m 1148.31,698.43 -437.287,0 -9.925,9.871 0,83.969 9.925,9.789 49.743,0 0,308.781 -49.743,0 -9.925,9.84 0,83.82 9.925,9.87 437.287,0 9.98,-9.87 0,-157.35 -9.98,-9.83 -94.95,0 -9.89,9.83 0,63.69 -133.904,0 0,-94.63 114.274,0 9.86,-10.01 0,-83.86 -9.86,-9.871 -114.274,0 0,-110.41 133.904,0 0,64.363 9.89,9.93 94.95,0 9.98,-9.93 0,-158.121 -9.98,-9.871 0,0" /><path
             id="path88"
             style="fill:#ffffff;fill-opacity:1;fill-rule:nonzero;stroke:none"
             d="m 720.945,718.309 417.475,0 0,138.203 -75.08,0 0,-64.242 -9.98,-10.008 -153.63,0 -10,10.008 0,130.07 10,9.918 114.27,0 0,64.055 -114.27,0 -10,9.887 0,114.48 10,9.96 153.63,0 9.98,-9.96 0,-63.57 75.08,0 0,137.43 -417.475,0 0,-63.9 49.684,0 9.84,-9.96 0,-328.41 -9.84,-10.008 -49.684,0 0,-63.953" /><path
             id="path90"
             style="fill:#080b0a;fill-opacity:1;fill-rule:nonzero;stroke:none"
             d="m 1715.59,698.43 -237.92,0 -9.92,9.871 0,83.969 9.92,9.789 40.46,0 0,115.832 -115.43,0 0,-115.832 42.09,0 9.91,-9.789 0,-83.969 -9.91,-9.871 -239.6,0 -9.86,9.871 0,83.969 9.86,9.789 52.17,0 0,308.781 -52.17,0 -9.86,9.84 0,83.82 9.86,9.87 239.6,0 9.91,-9.87 0,-83.82 -9.91,-9.84 -42.09,0 0,-89.06 115.43,0 0,89.06 -40.46,0 -9.92,9.84 0,83.82 9.92,9.87 237.92,0 9.79,-9.87 0,-83.82 -9.79,-9.84 -52.16,0 0,-308.781 52.16,0 9.79,-9.789 0,-83.969 -9.79,-9.871 0,0" /><path
             id="path92"
             style="fill:#ffffff;fill-opacity:1;fill-rule:nonzero;stroke:none"
             d="m 1487.61,718.309 218,0 0,63.953 -52.09,0 -9.94,10.008 0,328.41 9.94,9.96 52.09,0 0,63.9 -218,0 0,-63.9 40.41,0 9.78,-9.96 0,-108.73 -9.78,-9.99 -135.24,0 -9.8,9.99 0,108.73 9.8,9.96 42.15,0 0,63.9 -219.81,0 0,-63.9 52.16,0 9.83,-9.96 0,-328.41 -9.83,-10.008 -52.16,0 0,-63.953 219.81,0 0,63.953 -42.15,0 -9.8,10.008 0,135.398 9.8,10.012 135.24,0 9.78,-10.012 0,-135.398 -9.78,-10.008 -40.41,0 0,-63.953" /><path
             id="path94"
             style="fill:#192125;fill-opacity:1;fill-rule:nonzero;stroke:none"
             d="m 2437,187.301 -34.26,0 -90.29,104.699 0,-104.699 -40.69,0 0,163.34 37.35,0 87.16,-99.852 0,99.852 40.73,0 0,-163.34" /><path
             id="path96"
             style="fill:#192125;fill-opacity:1;fill-rule:nonzero;stroke:none"
             d="m 2584.74,350.641 -47.17,0 -65.85,-163.34 43.1,0 12.19,32.34 73.07,0 13.39,-32.34 43.82,0 -72.55,163.34 z m 3.35,-102.469 -50.28,0 23.94,63.418 26.34,-63.418" /><path
             id="path98"
             style="fill:#192125;fill-opacity:1;fill-rule:nonzero;stroke:none"
             d="m 2821.33,320.719 -59.14,0 0,-133.418 -40.72,0 0,133.418 -59.12,0 0,29.922 158.98,0 0,-29.922" /><path
             id="path100"
             style="fill:#192125;fill-opacity:1;fill-rule:nonzero;stroke:none"
             d="m 3017.45,350.641 0,-92.641 c 0,-54.121 -36.86,-72.789 -81.64,-72.789 -47.41,0 -81.66,22 -81.66,72.519 l 0,92.911 40.69,0 0,-93.871 c 0,-23.438 17.02,-37.571 40.48,-37.571 21.55,0 41.45,11.242 41.45,40.449 l 0,90.993 40.68,0" /><path
             id="path102"
             style="fill:#192125;fill-opacity:1;fill-rule:nonzero;stroke:none"
             d="m 3062.26,350.641 0,-163.34 40.71,0 0,66.39 11.72,0 c 22.02,0 28.49,-31.371 45.95,-66.39 l 44.81,0 c -23,47.929 -28.01,68.07 -44.81,76.418 18.71,8.621 28.05,22.051 28.05,39.98 0,24.442 -19.86,46.942 -53.43,46.942 l -73,0 z m 40.71,-29.922 20.58,0 c 15.33,0 23.22,-6.207 23.22,-18.43 0,-13.91 -10.99,-18.668 -22.24,-18.668 l -21.56,0 0,37.098" /><path
             id="path104"
             style="fill:#192125;fill-opacity:1;fill-rule:nonzero;stroke:none"
             d="m 3337.86,350.641 -47.14,0 -65.87,-163.34 43.11,0 12.22,32.34 73.02,0 13.41,-32.34 43.83,0 -72.58,163.34 z m 3.36,-102.469 -50.28,0 23.93,63.418 26.35,-63.418" /><path
             id="path106"
             style="fill:#192125;fill-opacity:1;fill-rule:nonzero;stroke:none"
             d="m 3569.45,187.301 -124.54,0 0,163.34 40.71,0 0,-133.36 83.83,0 0,-29.98" /><path
             id="path108"
             style="fill:#192125;fill-opacity:1;fill-rule:nonzero;stroke:none"
             d="m 3791.73,187.301 -120.51,0 0,163.34 118.81,0 0,-29.922 -78.1,0 0,-34.207 74.51,0 0,-29.981 -74.51,0 0,-39.25 79.8,0 0,-29.98" /><path
             id="path110"
             style="fill:#192125;fill-opacity:1;fill-rule:nonzero;stroke:none"
             d="m 4000.28,187.301 -34.23,0 -90.28,104.699 0,-104.699 -40.7,0 0,163.34 37.32,0 87.22,-99.852 0,99.852 40.67,0 0,-163.34" /><path
             id="path112"
             style="fill:#192125;fill-opacity:1;fill-rule:nonzero;stroke:none"
             d="m 4125.04,185.211 -17.69,0 -79.03,165.43 44.31,0 43.07,-93.121 40.97,93.121 43.81,0 -75.44,-165.43" /><path
             id="path114"
             style="fill:#192125;fill-opacity:1;fill-rule:nonzero;stroke:none"
             d="m 4229.71,187.301 40.6992,0 0,163.34 -40.6992,0 0,-163.34 z" /><path
             id="path116"
             style="fill:#192125;fill-opacity:1;fill-rule:nonzero;stroke:none"
             d="m 4323.55,350.641 0,-163.34 40.73,0 0,66.39 11.77,0 c 22.02,0 28.45,-31.371 45.93,-66.39 l 44.75,0 c -22.98,47.929 -28,68.07 -44.75,76.418 18.67,8.621 28,22.051 28,39.98 0,24.442 -19.88,46.942 -53.39,46.942 l -73.04,0 z m 40.73,-29.922 20.57,0 c 15.33,0 23.24,-6.207 23.24,-18.43 0,-13.91 -11.01,-18.668 -22.25,-18.668 l -21.56,0 0,37.098" /><path
             id="path118"
             style="fill:#192125;fill-opacity:1;fill-rule:nonzero;stroke:none"
             d="m 4677.73,269.012 c 0,39.269 -31.87,83.808 -93.41,83.808 -61.55,0 -93.62,-44.289 -93.62,-83.808 0,-41.68 33.74,-83.801 93.62,-83.801 58.64,0 93.41,41.871 93.41,83.801 z m -41.95,0 c 0,-29.942 -20.57,-49.813 -51.46,-49.813 -31.14,0 -51.72,19.871 -51.72,49.813 0,29.898 20.58,49.808 51.72,49.808 30.89,0 51.46,-19.91 51.46,-49.808" /><path
             id="path120"
             style="fill:#192125;fill-opacity:1;fill-rule:nonzero;stroke:none"
             d="m 4882.21,187.301 -34.24,0 -90.24,104.699 0,-104.699 -40.75,0 0,163.34 37.38,0 87.12,-99.852 0,99.852 40.73,0 0,-163.34" /><path
             id="path122"
             style="fill:#192125;fill-opacity:1;fill-rule:nonzero;stroke:none"
             d="m 5074.73,350.641 35.46,0 0,-163.34 -40.68,0 0,102.039 -44.1,-51.25 -6.22,0 -44.06,51.25 0,-102.039 -40.73,0 0,163.34 35.47,0 52.45,-60.551 52.41,60.551" /><path
             id="path124"
             style="fill:#192125;fill-opacity:1;fill-rule:nonzero;stroke:none"
             d="m 5282.87,187.301 -120.48,0 0,163.34 118.77,0 0,-29.922 -78.04,0 0,-34.207 74.45,0 0,-29.981 -74.45,0 0,-39.25 79.75,0 0,-29.98" /><path
             id="path126"
             style="fill:#192125;fill-opacity:1;fill-rule:nonzero;stroke:none"
             d="m 5495.01,187.301 -34.24,0 -90.26,104.699 0,-104.699 -40.72,0 0,163.34 37.37,0 87.18,-99.852 0,99.852 40.67,0 0,-163.34" /><path
             id="path128"
             style="fill:#192125;fill-opacity:1;fill-rule:nonzero;stroke:none"
             d="m 5688.76,320.719 -59.18,0 0,-133.418 -40.71,0 0,133.418 -59.14,0 0,29.922 159.03,0 0,-29.922" /><path
             id="path130"
             style="fill:#192125;fill-opacity:1;fill-rule:nonzero;stroke:none"
             d="m 5789.55,350.641 0,-163.34 40.72,0 0,66.39 11.77,0 c 22.01,0 28.49,-31.371 45.94,-66.39 l 44.79,0 c -22.98,47.929 -28,68.07 -44.79,76.418 18.67,8.621 28.04,22.051 28.04,39.98 0,24.442 -19.86,46.942 -53.43,46.942 l -73.04,0 z m 40.72,-29.922 20.62,0 c 15.32,0 23.19,-6.207 23.19,-18.43 0,-13.91 -11,-18.668 -22.25,-18.668 l -21.56,0 0,37.098" /><path
             id="path132"
             style="fill:#192125;fill-opacity:1;fill-rule:nonzero;stroke:none"
             d="m 6088.17,187.301 -120.44,0 0,163.34 118.77,0 0,-29.922 -78.05,0 0,-34.207 74.46,0 0,-29.981 -74.46,0 0,-39.25 79.72,0 0,-29.98" /><path
             id="path134"
             style="fill:#192125;fill-opacity:1;fill-rule:nonzero;stroke:none"
             d="m 6240.97,308.281 c -23.72,10.539 -37.84,14.598 -51.72,14.598 -14.59,0 -23.94,-5.258 -23.94,-13.379 0,-24.711 83.11,-17.77 83.11,-74.781 0,-31.321 -26.37,-49.508 -62.76,-49.508 -28.49,0 -42.59,7.391 -58.9,15.769 l 0,35.192 c 23.48,-15.524 37.82,-21.063 55.8,-21.063 15.54,0 23.92,5.539 23.92,15.09 0,26.821 -83.1,17 -83.1,75.68 0,28.25 24.45,46.941 62.28,46.941 18.22,0 34.72,-3.808 55.31,-12.699 l 0,-31.84" /><path
             id="path136"
             style="fill:#192125;fill-opacity:1;fill-rule:nonzero;stroke:none"
             d="m 6412.42,187.301 -120.39,0 0,163.34 118.71,0 0,-29.922 -78.03,0 0,-34.207 74.5,0 0,-29.981 -74.5,0 0,-39.25 79.71,0 0,-29.98" /><path
             id="path138"
             style="fill:#192125;fill-opacity:1;fill-rule:nonzero;stroke:none"
             d="m 6548.71,350.641 -47.2,0 -65.82,-163.34 43.08,0 12.19,32.34 73.08,0 13.4,-32.34 43.86,0 -72.59,163.34 z m 3.34,-102.469 -50.29,0 23.92,63.418 26.37,-63.418" /><path
             id="path140"
             style="fill:#192125;fill-opacity:1;fill-rule:nonzero;stroke:none"
             d="m 6649.75,350.641 0,-163.34 40.75,0 0,66.39 11.74,0 c 21.96,0 28.44,-31.371 45.93,-66.39 l 44.79,0 c -22.99,47.929 -28,68.07 -44.79,76.418 18.67,8.621 28.04,22.051 28.04,39.98 0,24.442 -19.88,46.942 -53.43,46.942 l -73.03,0 z m 40.75,-29.922 20.54,0 c 15.33,0 23.27,-6.207 23.27,-18.43 0,-13.91 -11.05,-18.668 -22.3,-18.668 l -21.51,0 0,37.098" /><path
             id="path142"
             style="fill:#192125;fill-opacity:1;fill-rule:nonzero;stroke:none"
             d="m 6973.76,201.449 c -22.74,-11.719 -39.99,-16.238 -64.19,-16.238 -63.47,0 -95.05,41.148 -95.05,83.301 0,43.578 35.66,84.308 98.19,84.308 22.78,0 43.07,-4.8 59.13,-14.371 l 0,-36.418 c -17.93,10.059 -36.15,16.789 -56.24,16.789 -34.72,0 -59.18,-20.601 -59.18,-49.601 0,-29.18 24.17,-50.02 58.19,-50.02 21.33,0 35.67,6.699 59.15,17.949 l 0,-35.699" /><path
             id="path144"
             style="fill:#192125;fill-opacity:1;fill-rule:nonzero;stroke:none"
             d="m 7178.75,187.301 -40.7,0 0,66.148 -81.44,0 0,-66.148 -40.71,0 0,163.34 40.71,0 0,-65.621 81.44,0 0,65.621 40.7,0 0,-163.34" /><path
             id="path146"
             style="fill:#192125;fill-opacity:1;fill-rule:nonzero;stroke:none"
             d="m 7453.16,201.449 c -22.74,-11.719 -39.98,-16.238 -64.15,-16.238 -63.49,0 -95.08,41.148 -95.08,83.301 0,43.578 35.67,84.308 98.15,84.308 22.81,0 43.12,-4.8 59.17,-14.371 l 0,-36.418 c -17.93,10.059 -36.15,16.789 -56.28,16.789 -34.73,0 -59.14,-20.601 -59.14,-49.601 0,-29.18 24.18,-50.02 58.2,-50.02 21.31,0 35.7,6.699 59.13,17.949 l 0,-35.699" /><path
             id="path148"
             style="fill:#192125;fill-opacity:1;fill-rule:nonzero;stroke:none"
             d="m 7669.17,269.012 c 0,39.269 -31.83,83.808 -93.37,83.808 -61.54,0 -93.66,-44.289 -93.66,-83.808 0,-41.68 33.79,-83.801 93.66,-83.801 58.64,0 93.37,41.871 93.37,83.801 z m -41.93,0 c 0,-29.942 -20.55,-49.813 -51.44,-49.813 -31.13,0 -51.72,19.871 -51.72,49.813 0,29.898 20.59,49.808 51.72,49.808 30.89,0 51.44,-19.91 51.44,-49.808" /><path
             id="path150"
             style="fill:#192125;fill-opacity:1;fill-rule:nonzero;stroke:none"
             d="m 7870.1,350.641 0,-92.641 c 0,-54.121 -36.89,-72.789 -81.63,-72.789 -47.44,0 -81.68,22 -81.68,72.519 l 0,92.911 40.71,0 0,-93.871 c 0,-23.438 16.99,-37.571 40.43,-37.571 21.6,0 41.45,11.242 41.45,40.449 l 0,90.993 40.72,0" /><path
             id="path152"
             style="fill:#192125;fill-opacity:1;fill-rule:nonzero;stroke:none"
             d="m 8080.36,187.301 -34.28,0 -90.22,104.699 0,-104.699 -40.72,0 0,163.34 37.37,0 87.13,-99.852 0,99.852 40.72,0 0,-163.34" /><path
             id="path154"
             style="fill:#192125;fill-opacity:1;fill-rule:nonzero;stroke:none"
             d="m 8278.89,201.449 c -22.75,-11.719 -39.99,-16.238 -64.2,-16.238 -63.41,0 -95.08,41.148 -95.08,83.301 0,43.578 35.65,84.308 98.18,84.308 22.79,0 43.17,-4.8 59.13,-14.371 l 0,-36.418 c -17.89,10.059 -36.11,16.789 -56.24,16.789 -34.68,0 -59.14,-20.601 -59.14,-49.601 0,-29.18 24.22,-50.02 58.16,-50.02 21.35,0 35.75,6.699 59.19,17.949 l 0,-35.699" /><path
             id="path156"
             style="fill:#192125;fill-opacity:1;fill-rule:nonzero;stroke:none"
             d="m 8322.24,187.301 40.6797,0 0,163.34 -40.6797,0 0,-163.34 z" /><path
             id="path158"
             style="fill:#192125;fill-opacity:1;fill-rule:nonzero;stroke:none"
             d="m 8534.63,187.301 -124.51,0 0,163.34 40.67,0 0,-133.36 83.84,0 0,-29.98" /></g></g></g></g></svg>