<?xml version="1.0" encoding="UTF-8" standalone="no"?>
<svg
   xmlns:dc="http://purl.org/dc/elements/1.1/"
   xmlns:cc="http://creativecommons.org/ns#"
   xmlns:rdf="http://www.w3.org/1999/02/22-rdf-syntax-ns#"
   xmlns:svg="http://www.w3.org/2000/svg"
   xmlns="http://www.w3.org/2000/svg"
   viewBox="0 0 502.70001 102.5"
   height="102.5"
   width="502.70001"
   xml:space="preserve"
   version="1.1"
   id="svg2"><metadata
     id="metadata8"><rdf:RDF><cc:Work
         rdf:about=""><dc:format>image/svg+xml</dc:format><dc:type
           rdf:resource="http://purl.org/dc/dcmitype/StillImage" /></cc:Work></rdf:RDF></metadata><defs
     id="defs6"><clipPath
       id="clipPath18"
       clipPathUnits="userSpaceOnUse"><path
         id="path20"
         d="M 0,820 0,0 l 4021.55,0 0,820 L 0,820 Z" /></clipPath></defs><g
     transform="matrix(1.25,0,0,-1.25,0,102.5)"
     id="g10"><g
       transform="scale(0.1,0.1)"
       id="g12"><g
         id="g14"><g
           clip-path="url(#clipPath18)"
           id="g16"><path
             id="path22"
             style="fill:#a7bf0f;fill-opacity:1;fill-rule:nonzero;stroke:none"
             d="m 1999.94,0 2021.61,0 0,820 -2021.61,0 0,-820 z" /><path
             id="path24"
             style="fill:#4c4807;fill-opacity:1;fill-rule:nonzero;stroke:none"
             d="m 0,0 1999.94,0 0,820 L 0,820 0,0 Z" /><path
             id="path26"
             style="fill:#ffffff;fill-opacity:1;fill-rule:nonzero;stroke:none"
             d="m 612.164,149.629 -64.828,0 -351.941,405.191 0,-405.191 -71,0 0,526.363 60.199,0 356.562,-407.508 0,407.508 71.008,0 0,-526.363" /><path
             id="path28"
             style="fill:#ffffff;fill-opacity:1;fill-rule:nonzero;stroke:none"
             d="m 980.355,608.07 -223.046,0 0,-158.988 215.328,0 0,-67.922 -215.328,0 0,-163.609 229.992,0 0,-67.922 -305.625,0 0,526.363 298.679,0 0,-67.922" /><path
             id="path30"
             style="fill:#ffffff;fill-opacity:1;fill-rule:nonzero;stroke:none"
             d="m 1129.35,445.996 48.62,0 c 81.03,0 104.19,41.68 103.42,85.664 -0.77,49.399 -30.1,79.496 -103.42,79.496 l -48.62,0 0,-165.16 z m 57.11,229.996 c 106.5,0 172.88,-56.344 172.88,-147.418 0,-60.969 -31.64,-106.504 -87.99,-128.886 47.85,-31.641 77.19,-80.262 117.32,-145.872 22.38,-36.265 35.5,-54.019 71.77,-104.187 l -90.3,0 -69.46,108.047 c -69.46,108.054 -101.1,120.398 -139.69,120.398 l -31.64,0 0,-228.445 -75.64,0 0,526.363 132.75,0" /><path
             id="path32"
             style="fill:#ffffff;fill-opacity:1;fill-rule:nonzero;stroke:none"
             d="m 1889.58,558.676 c -64.82,37.816 -120.4,54.801 -181.37,54.801 -120.39,0 -209.92,-85.672 -209.92,-201.434 0,-118.09 86.44,-199.895 213.01,-199.895 59.43,0 124.26,20.832 183.69,59.422 l 0,-82.578 c -51.71,-27.019 -108.05,-46.304 -190.63,-46.304 -197.58,0 -284.02,152.039 -284.02,262.402 0,160.535 121.17,277.844 288.64,277.844 54.03,0 108.83,-13.121 180.6,-43.215 l 0,-81.043" /><path
             id="path34"
             style="fill:#ffffff;fill-opacity:1;fill-rule:nonzero;stroke:none"
             d="m 2178.45,502.441 -17.07,10.368 c -10.72,6.539 -18.33,12.972 -22.85,19.296 -4.54,6.329 -6.8,13.61 -6.8,21.844 0,12.356 4.29,22.391 12.86,30.098 8.56,7.711 19.71,11.566 33.41,11.566 13.09,0 25.12,-3.675 36.04,-11.035 l 0,-25.492 c -11.3,10.875 -23.46,16.312 -36.49,16.312 -7.34,0 -13.37,-1.699 -18.09,-5.089 -4.71,-3.395 -7.07,-7.735 -7.07,-13.028 0,-4.703 1.74,-9.101 5.21,-13.203 3.47,-4.101 9.06,-8.41 16.77,-12.922 l 17.14,-10.148 c 19.14,-11.434 28.71,-25.981 28.71,-43.649 0,-12.578 -4.2,-22.796 -12.63,-30.66 -8.42,-7.859 -19.38,-11.793 -32.85,-11.793 -15.5,0 -29.61,4.762 -42.34,14.293 l 0,28.528 c 12.13,-15.372 26.16,-23.055 42.11,-23.055 7.04,0 12.9,1.961 17.58,5.875 4.68,3.918 7.02,8.824 7.02,14.719 0,9.547 -6.89,18.605 -20.66,27.175" /><path
             id="path36"
             style="fill:#ffffff;fill-opacity:1;fill-rule:nonzero;stroke:none"
             d="m 2381.3,473.09 0,-24.707 c -16.48,-8.985 -35.49,-13.477 -57.05,-13.477 -17.52,0 -32.38,3.524 -44.59,10.559 -12.2,7.035 -21.86,16.73 -28.98,29.086 -7.11,12.351 -10.66,25.719 -10.66,40.094 0,22.835 8.14,42.039 24.42,57.613 16.29,15.57 36.37,23.355 60.26,23.355 16.46,0 34.77,-4.304 54.91,-12.914 l 0,-24.144 c -18.34,10.484 -36.27,15.722 -53.79,15.722 -17.97,0 -32.89,-5.668 -44.76,-17.015 -11.86,-11.34 -17.8,-25.547 -17.8,-42.617 0,-17.223 5.84,-31.375 17.52,-42.454 11.68,-11.078 26.62,-16.621 44.82,-16.621 19.01,0 37.57,5.84 55.7,17.52" /><path
             id="path38"
             style="fill:#ffffff;fill-opacity:1;fill-rule:nonzero;stroke:none"
             d="m 2410.29,436.703 22.4609,0 0,156.891 -22.4609,0 0,-156.891 z" /><path
             id="path40"
             style="fill:#ffffff;fill-opacity:1;fill-rule:nonzero;stroke:none"
             d="m 2468.72,593.594 88.95,0 0,-19.989 -66.49,0 0,-47.843 64.24,0 0,-20.102 -64.24,0 0,-48.742 68.62,0 0,-19.988 -91.08,0 0,156.664" /><path
             id="path42"
             style="fill:#ffffff;fill-opacity:1;fill-rule:nonzero;stroke:none"
             d="m 2709.53,593.594 21.34,0 0,-156.891 -19.32,0 -104.89,120.832 0,-120.832 -21.11,0 0,156.891 18.19,0 105.79,-121.856 0,121.856" /><path
             id="path44"
             style="fill:#ffffff;fill-opacity:1;fill-rule:nonzero;stroke:none"
             d="m 2900.81,473.09 0,-24.707 c -16.46,-8.985 -35.49,-13.477 -57.05,-13.477 -17.52,0 -32.38,3.524 -44.58,10.559 -12.21,7.035 -21.87,16.73 -28.97,29.086 -7.12,12.351 -10.68,25.719 -10.68,40.094 0,22.835 8.15,42.039 24.43,57.613 16.28,15.57 36.37,23.355 60.25,23.355 16.47,0 34.77,-4.304 54.92,-12.914 l 0,-24.144 c -18.35,10.484 -36.28,15.722 -53.8,15.722 -17.97,0 -32.88,-5.668 -44.75,-17.015 -11.87,-11.34 -17.8,-25.547 -17.8,-42.617 0,-17.223 5.84,-31.375 17.52,-42.454 11.68,-11.078 26.61,-16.621 44.81,-16.621 19.02,0 37.59,5.84 55.7,17.52" /><path
             id="path46"
             style="fill:#ffffff;fill-opacity:1;fill-rule:nonzero;stroke:none"
             d="m 2929.59,593.594 88.95,0 0,-19.989 -66.49,0 0,-47.843 64.24,0 0,-20.102 -64.24,0 0,-48.742 68.61,0 0,-19.988 -91.07,0 0,156.664" /><path
             id="path48"
             style="fill:#ffffff;fill-opacity:1;fill-rule:nonzero;stroke:none"
             d="m 3202.47,574.504 c -17.95,0 -32.7,-5.617 -44.27,-16.848 -11.55,-11.23 -17.33,-25.566 -17.33,-43.011 0,-16.918 5.8,-30.997 17.39,-42.227 11.59,-11.23 26.11,-16.848 43.54,-16.848 17.5,0 32.11,5.731 43.82,17.184 11.69,11.457 17.55,25.719 17.55,42.789 0,16.621 -5.86,30.605 -17.55,41.941 -11.71,11.348 -26.1,17.02 -43.15,17.02 z m -0.9,21.336 c 24.24,0 44.43,-7.676 60.55,-23.024 16.12,-15.343 24.19,-34.589 24.19,-57.722 0,-23.137 -8.14,-42.285 -24.42,-57.442 -16.26,-15.168 -36.78,-22.746 -61.55,-22.746 -23.64,0 -43.34,7.578 -59.09,22.746 -15.75,15.157 -23.62,34.157 -23.62,56.993 0,23.429 7.93,42.828 23.79,58.171 15.86,15.348 35.91,23.024 60.15,23.024" /><path
             id="path50"
             style="fill:#ffffff;fill-opacity:1;fill-rule:nonzero;stroke:none"
             d="m 3315.31,593.594 83.66,0 0,-19.989 -61.2,0 0,-43.8 61.2,0 0,-19.992 -61.2,0 0,-73.11 -22.46,0 0,156.891" /><path
             id="path52"
             style="fill:#ffffff;fill-opacity:1;fill-rule:nonzero;stroke:none"
             d="m 3479.3,593.816 131.05,0 0,-19.988 -54.69,0 0,-137.125 -22.57,0 0,137.125 -53.79,0 0,19.988" /><path
             id="path54"
             style="fill:#ffffff;fill-opacity:1;fill-rule:nonzero;stroke:none"
             d="m 3743.35,593.594 22.46,0 0,-156.891 -22.46,0 0,68.281 -88.15,0 0,-68.281 -22.47,0 0,156.891 22.47,0 0,-67.832 88.15,0 0,67.832" /><path
             id="path56"
             style="fill:#ffffff;fill-opacity:1;fill-rule:nonzero;stroke:none"
             d="m 3801.55,593.594 88.95,0 0,-19.989 -66.49,0 0,-47.843 64.24,0 0,-20.102 -64.24,0 0,-48.742 68.63,0 0,-19.988 -91.09,0 0,156.664" /><path
             id="path58"
             style="fill:#ffffff;fill-opacity:1;fill-rule:nonzero;stroke:none"
             d="m 2132.26,374.059 100.54,0 0,-22.598 -75.15,0 0,-54.082 72.61,0 0,-22.731 -72.61,0 0,-55.097 77.56,0 0,-22.598 -102.95,0 0,177.106" /><path
             id="path60"
             style="fill:#ffffff;fill-opacity:1;fill-rule:nonzero;stroke:none"
             d="m 2403.17,374.059 24.12,0 0,-177.36 -21.83,0 -118.58,136.598 0,-136.598 -23.86,0 0,177.36 20.56,0 119.59,-137.75 0,137.75" /><path
             id="path62"
             style="fill:#ffffff;fill-opacity:1;fill-rule:nonzero;stroke:none"
             d="m 2577.59,374.059 25.28,0 -74.99,-178.121 -5.75,0 -76.43,178.121 25.56,0 53.34,-124.547 52.99,124.547" /><path
             id="path64"
             style="fill:#ffffff;fill-opacity:1;fill-rule:nonzero;stroke:none"
             d="m 2622.55,196.699 25.3906,0 0,177.359 -25.3906,0 0,-177.359 z" /><path
             id="path66"
             style="fill:#ffffff;fill-opacity:1;fill-rule:nonzero;stroke:none"
             d="m 2721.06,352.477 -7.61,0 0,-55.989 9.65,0 c 12.86,0 21.69,1.102 26.46,3.301 4.79,2.203 8.51,5.524 11.17,9.969 2.67,4.441 4.01,9.5 4.01,15.168 0,5.586 -1.49,10.644 -4.45,15.172 -2.97,4.527 -7.13,7.722 -12.51,9.586 -5.37,1.859 -14.27,2.793 -26.72,2.793 z m -33,-155.778 0,177.36 44.43,0 c 17.94,0 32.18,-4.446 42.72,-13.332 10.53,-8.887 15.81,-20.903 15.81,-36.055 0,-10.324 -2.59,-19.25 -7.75,-26.785 -5.16,-7.535 -12.57,-13.16 -22.22,-16.891 5.67,-3.723 11.22,-8.801 16.64,-15.234 5.41,-6.426 13.02,-17.637 22.85,-33.633 6.17,-10.078 11.12,-17.656 14.85,-22.734 l 9.4,-12.696 -30.22,0 -7.73,11.692 c -0.26,0.418 -0.77,1.14 -1.53,2.156 l -4.94,6.992 -7.86,12.949 -8.5,13.848 c -5.24,7.285 -10.05,13.086 -14.4,17.383 -4.37,4.316 -8.31,7.422 -11.83,9.316 -3.51,1.903 -9.42,2.852 -17.72,2.852 l -6.61,0 0,-77.188 -25.39,0" /><path
             id="path68"
             style="fill:#ffffff;fill-opacity:1;fill-rule:nonzero;stroke:none"
             d="m 2916.76,352.477 c -20.3,0 -36.97,-6.348 -50.04,-19.043 -13.06,-12.696 -19.59,-28.903 -19.59,-48.629 0,-19.121 6.55,-35.039 19.66,-47.735 13.1,-12.695 29.51,-19.043 49.21,-19.043 19.78,0 36.29,6.485 49.53,19.434 13.23,12.949 19.85,29.062 19.85,48.359 0,18.793 -6.62,34.602 -19.85,47.422 -13.24,12.821 -29.49,19.235 -48.77,19.235 z m -1.02,24.121 c 27.4,0 50.23,-8.676 68.45,-26.028 18.22,-17.347 27.34,-39.101 27.34,-65.257 0,-26.153 -9.2,-47.793 -27.59,-64.93 -18.4,-17.141 -41.6,-25.715 -69.59,-25.715 -26.72,0 -49,8.574 -66.8,25.715 -17.8,17.137 -26.7,38.609 -26.7,64.422 0,26.496 8.96,48.418 26.89,65.765 17.93,17.352 40.6,26.028 68,26.028" /><path
             id="path70"
             style="fill:#ffffff;fill-opacity:1;fill-rule:nonzero;stroke:none"
             d="m 3183.68,374.059 24.12,0 0,-177.36 -21.83,0 -118.58,136.598 0,-136.598 -23.86,0 0,177.36 20.56,0 119.59,-137.75 0,137.75" /><path
             id="path72"
             style="fill:#ffffff;fill-opacity:1;fill-rule:nonzero;stroke:none"
             d="m 3386.81,374.059 23.74,0 0,-177.36 -25.52,0 0,138.004 -54.53,-68.551 -4.7,0 -55.16,68.551 0,-138.004 -25.39,0 0,177.36 24.04,0 58.93,-72.844 58.59,72.844" /><path
             id="path74"
             style="fill:#ffffff;fill-opacity:1;fill-rule:nonzero;stroke:none"
             d="m 3438.36,374.059 100.55,0 0,-22.598 -75.16,0 0,-54.082 72.62,0 0,-22.731 -72.62,0 0,-55.097 77.57,0 0,-22.598 -102.96,0 0,177.106" /><path
             id="path76"
             style="fill:#ffffff;fill-opacity:1;fill-rule:nonzero;stroke:none"
             d="m 3709.28,374.059 24.12,0 0,-177.36 -21.84,0 -118.57,136.598 0,-136.598 -23.87,0 0,177.36 20.57,0 119.59,-137.75 0,137.75" /><path
             id="path78"
             style="fill:#ffffff;fill-opacity:1;fill-rule:nonzero;stroke:none"
             d="m 3756.25,374.313 148.15,0 0,-22.598 -61.82,0 0,-155.016 -25.52,0 0,155.016 -60.81,0 0,22.598" /></g></g></g></g></svg>