<?xml version="1.0" encoding="UTF-8" standalone="no"?>
<svg
   xmlns:dc="http://purl.org/dc/elements/1.1/"
   xmlns:cc="http://creativecommons.org/ns#"
   xmlns:rdf="http://www.w3.org/1999/02/22-rdf-syntax-ns#"
   xmlns:svg="http://www.w3.org/2000/svg"
   xmlns="http://www.w3.org/2000/svg"
   viewBox="0 0 353.4375 136.97501"
   height="136.97501"
   width="353.4375"
   xml:space="preserve"
   version="1.1"
   id="svg2"><metadata
     id="metadata8"><rdf:RDF><cc:Work
         rdf:about=""><dc:format>image/svg+xml</dc:format><dc:type
           rdf:resource="http://purl.org/dc/dcmitype/StillImage" /></cc:Work></rdf:RDF></metadata><defs
     id="defs6"><clipPath
       id="clipPath18"
       clipPathUnits="userSpaceOnUse"><path
         id="path20"
         d="M 0,1095.77 0,0 l 2827.53,0 0,1095.77 -2827.53,0 z" /></clipPath></defs><g
     transform="matrix(1.25,0,0,-1.25,0,136.975)"
     id="g10"><g
       transform="scale(0.1,0.1)"
       id="g12"><g
         id="g14"><g
           clip-path="url(#clipPath18)"
           id="g16"><path
             id="path22"
             style="fill:#0d4d84;fill-opacity:1;fill-rule:nonzero;stroke:none"
             d="m 1.19531,828.125 c 0,0 -30.41411,265.535 215.18369,267.635 229.82,1.94 534.23,-294.951 534.23,-557.342 0,0 -200.898,449.402 -532.586,432.617 C 20.9727,961.063 1.19531,828.125 1.19531,828.125" /><path
             id="path24"
             style="fill:#f4731c;fill-opacity:1;fill-rule:nonzero;stroke:none"
             d="m 169.164,943.582 c 0,0 -145.5195,-10.926 -161.289,-173.523 8.3359,-52.11 41.9063,-174.758 177.012,-306.145 0,0 -178.81278,314.668 -15.723,479.668" /><path
             id="path26"
             style="fill:#c60a4d;fill-opacity:1;fill-rule:nonzero;stroke:none"
             d="m 613.605,508.887 c 0,0 -27.429,163.875 -159.148,293.008 -118.871,116.523 -216.902,147.859 -216.902,147.859 0,0 193.523,20.625 383.043,-237.539 C 700.621,603.25 723.887,544.852 723.887,544.852 673.141,519.57 613.605,508.887 613.605,508.887" /><path
             id="path28"
             style="fill:#c60a4d;fill-opacity:1;fill-rule:nonzero;stroke:none"
             d="M 719.254,346.973 C 718.125,346.602 641.09,164.961 492.77,138.516 c -14.176,-2.512 -23.747,-2.364 -39.18,0 0,0 122.504,73.894 143.523,183.047 0,0 65.653,6.882 122.141,25.41" /><path
             id="path30"
             style="fill:#96d550;fill-opacity:1;fill-rule:nonzero;stroke:none"
             d="m 359.578,193.367 c 0,0 -41.844,42.824 -72.836,127.129 -27.976,76.152 -42.527,178.77 -25.094,315.508 41.082,124.035 143.403,182.168 143.403,182.168 75.844,-63.211 96.144,-106.484 96.144,-106.484 0,0 -258.109,-206.59 -141.617,-518.321" /><path
             id="path32"
             style="fill:#0d4d84;fill-opacity:1;fill-rule:nonzero;stroke:none"
             d="M 611.039,943.555 C 639.34,953.027 1004.62,1053.76 1059.18,739.941 1096.77,523.797 828.277,380.332 623.613,346.355 470.238,320.887 373.828,358.594 373.828,358.594 c 0,0 294.617,-13.633 508.481,282.859 145.421,201.66 -182.067,305.266 -314.336,282.16 0,0 14.707,10.496 43.066,19.942" /><path
             id="path34"
             style="fill:#76afe3;fill-opacity:1;fill-rule:nonzero;stroke:none"
             d="m 352.285,379.258 c 0,0 2.817,68.555 28.844,125.359 0,0 182.445,-75.047 388.684,39.875 C 662.512,451.426 531.41,377.832 352.285,379.258" /><path
             id="path36"
             style="fill:#0d4d84;fill-opacity:1;fill-rule:nonzero;stroke:none"
             d="M 749.879,370 C 749.879,370 723.355,0 428.395,0 132.227,0 168.137,477.383 243.707,608.613 205.02,427.695 278.383,179.832 424.391,124.277 542.934,79.1719 700.023,217.578 749.879,370" /><path
             id="path38"
             style="fill:#76afe3;fill-opacity:1;fill-rule:nonzero;stroke:none"
             d="m 149.477,882.801 c 0,0 -81.9184,-121.961 37.039,-374.629 0,0 10.679,59.113 40.242,113.43 0,0 -64.684,53.359 -77.281,261.199" /><path
             id="path40"
             style="fill:#96d550;fill-opacity:1;fill-rule:nonzero;stroke:none"
             d="m 607.777,906.309 c 95.797,-3.204 176.504,-34.524 220.098,-63.567 57.391,-38.262 67.66,-78.523 67.66,-78.523 -58.805,79.765 -216.34,49.851 -216.34,49.851 -38.105,58.223 -71.418,92.239 -71.418,92.239" /><path
             id="path42"
             style="fill:#0d4d84;fill-opacity:1;fill-rule:nonzero;stroke:none"
             d="m 1251.39,782.977 -104.44,0 0,35.449 262.38,0 0,-35.449 -104.43,0 0,-409.364 -53.51,0 0,409.364" /><path
             id="path44"
             style="fill:#0d4d84;fill-opacity:1;fill-rule:nonzero;stroke:none"
             d="m 1562.22,592.156 c 0,26.438 -7.74,69.629 -62.54,69.629 -54.79,0 -66.39,-52.859 -66.39,-69.629 l 128.93,0 z m 43.83,-213.379 c -25.14,-7.089 -41.25,-12.246 -76.07,-12.246 -91.54,0 -151.49,56.731 -151.49,169.543 0,87.676 34.81,151.492 124.42,151.492 108.94,0 108.94,-98.632 108.94,-123.777 l -179.85,0 c 0,-67.687 23.21,-166.32 117.97,-166.32 27.72,0 38.03,4.523 56.08,9.035 l 0,-27.727" /><path
             id="path46"
             style="fill:#0d4d84;fill-opacity:1;fill-rule:nonzero;stroke:none"
             d="m 1834.87,630.828 c -10.3,5.813 -41.9,24.504 -78,24.504 -27.71,0 -52.87,-11.602 -52.87,-36.738 0,-36.758 44.49,-47.063 98,-79.297 29.66,-17.402 52.86,-38.684 52.86,-81.875 0,-47.695 -34.17,-90.891 -114.75,-90.891 -41.9,0 -68.34,7.082 -83.16,12.891 l 0,48.351 c 6.45,-3.867 45.77,-29.015 85.73,-29.015 35.46,0 64.47,14.836 64.47,49.648 0,30.938 -29.65,43.184 -65.75,64.453 -38.68,22.571 -83.16,38.684 -83.16,90.911 0,52.851 35.46,83.796 105.08,83.796 32.23,0 59.31,-8.386 71.55,-10.957 l 0,-45.781" /><path
             id="path48"
             style="fill:#0d4d84;fill-opacity:1;fill-rule:nonzero;stroke:none"
             d="m 2061.76,630.828 c -10.31,5.813 -41.89,24.504 -78.01,24.504 -27.71,0 -52.85,-11.602 -52.85,-36.738 0,-36.758 44.49,-47.063 97.99,-79.297 29.66,-17.402 52.86,-38.684 52.86,-81.875 0,-47.695 -34.17,-90.891 -114.74,-90.891 -41.92,0 -68.33,7.082 -83.17,12.891 l 0,48.351 c 6.45,-3.867 45.76,-29.015 85.74,-29.015 35.46,0 64.47,14.836 64.47,49.648 0,30.938 -29.66,43.184 -65.75,64.453 -38.7,22.571 -83.17,38.684 -83.17,90.911 0,52.851 35.45,83.796 105.08,83.796 32.23,0 59.32,-8.386 71.55,-10.957 l 0,-45.781" /><path
             id="path50"
             style="fill:#0d4d84;fill-opacity:1;fill-rule:nonzero;stroke:none"
             d="m 2305.42,592.156 c 0,26.438 -7.74,69.629 -62.53,69.629 -54.8,0 -66.4,-52.859 -66.4,-69.629 l 128.93,0 z m 43.83,-213.379 c -25.13,-7.089 -41.25,-12.246 -76.06,-12.246 -91.54,0 -151.51,56.731 -151.51,169.543 0,87.676 34.82,151.492 124.44,151.492 108.93,0 108.93,-98.632 108.93,-123.777 l -179.86,0 c 0,-67.687 23.21,-166.32 117.98,-166.32 27.71,0 38.04,4.523 56.08,9.035 l 0,-27.727" /><path
             id="path52"
             style="fill:#0d4d84;fill-opacity:1;fill-rule:nonzero;stroke:none"
             d="m 2403.37,373.613 47.7188,0 0,444.813 -47.7188,0 0,-444.813 z" /><path
             id="path54"
             style="fill:#0d4d84;fill-opacity:1;fill-rule:nonzero;stroke:none"
             d="m 2510.38,373.613 47.7031,0 0,444.813 -47.7031,0 0,-444.813 z" /><path
             id="path56"
             style="fill:#0d4d84;fill-opacity:1;fill-rule:nonzero;stroke:none"
             d="m 2779.84,516.094 c -16.77,-1.301 -121.2,0 -121.2,-65.762 0,-32.883 20.61,-51.574 48.35,-51.574 38.68,0 72.85,36.113 72.85,83.808 l 0,33.528 z m 0,-99.289 -1.3,0 c -9.02,-14.813 -37.38,-50.274 -88.32,-50.274 -49.64,0 -83.16,36.094 -83.16,77.364 0,90.246 115.39,94.757 172.78,97.98 l 0,40.605 c 0,32.891 -3.89,79.305 -54.81,79.305 -48.99,0 -52.2,-38.035 -54.15,-61.25 l -55.45,0 c 3.24,37.395 21.93,87.031 111.53,87.031 90.26,0 100.57,-58.66 100.57,-102.5 l 0,-211.453 -47.69,0 0,43.192" /><path
             id="path58"
             style="fill:#0d4d84;fill-opacity:1;fill-rule:nonzero;stroke:none"
             d="m 2225.58,142.176 c -4.42,-2.547 -12.33,-6.035 -22.66,-6.035 -28.58,0 -37.3,24.972 -37.3,49.543 0,17.597 6.17,46.074 34.48,46.074 18.91,0 29.1,-12.5 29.1,-26.602 l -13.14,0 c 0,8.465 -3.49,19.61 -16.77,19.61 -19.05,0 -21.73,-23.899 -21.73,-37.461 0,-22.032 6.44,-43.242 26.57,-43.242 11.52,0 16.49,4.824 21.45,8.582 l 0,-10.469" /><path
             id="path60"
             style="fill:#0d4d84;fill-opacity:1;fill-rule:nonzero;stroke:none"
             d="m 2277.13,141.512 c 13.81,0 16.62,13.828 16.62,26.984 0,13.965 -2.81,29.141 -16.62,29.141 -13.69,0 -15.96,-15.176 -15.96,-29.141 0,-13.156 2.27,-26.984 15.96,-26.984 z m -27.11,27.394 c 0,20.41 8.05,34.102 27.11,34.102 19.05,0 27.76,-13.692 27.76,-34.102 0,-20.683 -8.71,-32.765 -27.76,-32.765 -19.06,0 -27.11,12.082 -27.11,32.765" /><path
             id="path62"
             style="fill:#0d4d84;fill-opacity:1;fill-rule:nonzero;stroke:none"
             d="m 2333.59,201.543 9.65,0 0,-15.723 0.27,0 c 3.89,8.055 10.33,17.188 22.94,17.188 11.13,0 15.29,-9.668 15.29,-16.789 l 0,-48.614 -9.93,0 0,41.368 c 0,6.847 0,15.851 -8.85,15.851 -13.41,0 -19.45,-17.461 -19.45,-29.816 l 0,-27.403 -9.92,0 0,63.938" /><path
             id="path64"
             style="fill:#0d4d84;fill-opacity:1;fill-rule:nonzero;stroke:none"
             d="m 2445.64,191.199 c -2.15,1.203 -8.72,5.09 -16.23,5.09 -5.77,0 -11.01,-2.414 -11.01,-7.648 0,-7.645 9.26,-9.793 20.39,-16.512 6.19,-3.633 11.01,-8.066 11.01,-17.063 0,-9.941 -7.11,-18.925 -23.89,-18.925 -8.71,0 -14.22,1.464 -17.3,2.675 l 0,10.071 c 1.35,-0.801 9.53,-6.028 17.85,-6.028 7.37,0 13.41,3.086 13.41,10.332 0,6.457 -6.17,9.004 -13.68,13.43 -8.05,4.707 -17.31,8.055 -17.31,18.934 0,11.015 7.37,17.453 21.87,17.453 6.71,0 12.34,-1.738 14.89,-2.278 l 0,-9.531" /><path
             id="path66"
             style="fill:#0d4d84;fill-opacity:1;fill-rule:nonzero;stroke:none"
             d="m 2513.62,153.191 -0.28,0 c -6.16,-13.164 -10.18,-17.05 -22.93,-17.05 -10.6,0 -15.3,11.406 -15.3,19.746 l 0,45.656 9.93,0 0,-41.367 c 0,-6.848 2.83,-15.852 11.4,-15.852 11.68,0 16.9,17.461 16.9,29.817 l 0,27.402 9.94,0 0,-63.938 -9.66,0 0,15.586" /><path
             id="path68"
             style="fill:#0d4d84;fill-opacity:1;fill-rule:nonzero;stroke:none"
             d="m 2555.98,137.605 9.9297,0 0,92.668 -9.9297,0 0,-92.668 z" /><path
             id="path70"
             style="fill:#0d4d84;fill-opacity:1;fill-rule:nonzero;stroke:none"
             d="m 2631.01,136.68 c -3.22,-0.539 -5.23,-0.539 -7.91,-0.539 -13.14,0 -19.18,4.562 -19.06,16.105 l 0,43.113 -11.26,0 0,6.184 11.26,0 0,15.039 9.94,6.035 0,-21.074 17.44,0 0,-6.184 -17.44,0 0,-37.871 c -0.14,-7.519 0,-14.902 11,-14.902 3.35,0 4.82,0.402 6.03,0.801 l 0,-6.707" /><path
             id="path72"
             style="fill:#0d4d84;fill-opacity:1;fill-rule:nonzero;stroke:none"
             d="m 2657.6,201.543 9.93,0 0,-63.938 -9.93,0 0,63.938 z m -0.67,28.73 11.27,0 0,-12.089 -11.27,0 0,12.089" /><path
             id="path74"
             style="fill:#0d4d84;fill-opacity:1;fill-rule:nonzero;stroke:none"
             d="m 2699.92,201.543 9.65,0 0,-15.723 0.27,0 c 3.89,8.055 10.33,17.188 22.93,17.188 11.14,0 15.3,-9.668 15.3,-16.789 l 0,-48.614 -9.93,0 0,41.368 c 0,6.847 0,15.851 -8.85,15.851 -13.42,0 -19.45,-17.461 -19.45,-29.816 l 0,-27.403 -9.92,0 0,63.938" /><path
             id="path76"
             style="fill:#0d4d84;fill-opacity:1;fill-rule:nonzero;stroke:none"
             d="m 2801.79,144.063 c 10.87,0 15.44,14.363 15.44,26.316 0,11.418 -4.3,26.191 -15.56,26.191 -10.6,0 -13.81,-15.047 -13.81,-26.191 0,-11.016 3.34,-26.316 13.93,-26.316 z m 25.36,-6.856 c 0,-19.465 -9.92,-28.32 -29.37,-28.32 -6.85,0 -12.48,1.062 -16.64,2.41 l 0,11.016 c 5.51,-3.094 11.14,-6.055 18.65,-6.055 17.44,0 17.44,16.926 17.44,21.621 l 0,12.629 -0.27,0 c -0.94,-4.16 -5.9,-12.903 -17.17,-12.903 -16.24,0 -23.08,15.45 -23.08,33.313 0,17.859 7.24,32.09 22.67,32.09 12.22,0 15.84,-9.387 17.58,-13.567 l 0.27,0 0,12.102 9.92,0 0,-64.336" /><path
             id="path78"
             style="fill:#0d4d84;fill-opacity:1;fill-rule:nonzero;stroke:none"
             d="m 2054.15,137.605 c -4.16,-0.8 -8.46,-1.464 -12.74,-1.464 -13.3,0 -28.98,4.824 -28.98,25.773 0,14.922 7.91,20.828 16.23,23.242 l 0,0.262 c -6.72,1.613 -15.43,6.582 -15.43,19.211 0,13.828 11.01,22.422 26.29,22.422 6.44,0 11.13,-1.074 14.22,-1.875 l 0,-7.121 c -1.88,0.8 -7.64,2.949 -13.42,2.949 -11.66,0 -15.96,-9.266 -15.96,-16.649 0,-12.082 9.92,-16.113 17.31,-16.113 l 23.75,0 0,23.367 9.92,6.446 0,-29.813 15.7,0 0,-6.183 -15.7,0 0,-26.317 c 0,-7.258 0.93,-13.293 10.19,-13.293 3.22,0 3.5,0.41 5.24,0.938 l 0,-6.18 c -2.68,-0.664 -5.1,-1.066 -8.32,-1.066 -17.03,0 -17.03,11.007 -17.03,18.8 l 0,27.118 -21.61,0 c -11.13,0 -19.45,-4.297 -19.45,-19.063 0,-14.226 7.77,-20.547 18.26,-20.547 5.49,0 9.92,1.614 11.53,2.278 l 0,-7.122" /><path
             id="path80"
             style="fill:#0d4d84;fill-opacity:1;fill-rule:nonzero;stroke:none"
             d="m 1251.37,222.891 -21.73,0 0,7.382 54.6,0 0,-7.382 -21.74,0 0,-85.286 -11.13,0 0,85.286" /><path
             id="path82"
             style="fill:#0d4d84;fill-opacity:1;fill-rule:nonzero;stroke:none"
             d="m 1334.94,183.145 c 0,5.496 -1.61,14.492 -13.02,14.492 -11.41,0 -13.83,-11.016 -13.83,-14.492 l 26.85,0 z m 9.12,-44.454 c -5.25,-1.484 -8.6,-2.55 -15.84,-2.55 -19.05,0 -31.53,11.808 -31.53,35.312 0,18.262 7.25,31.555 25.9,31.555 22.67,0 22.67,-20.547 22.67,-25.774 l -37.43,0 c 0,-14.101 4.83,-34.648 24.55,-34.648 5.77,0 7.92,0.937 11.68,1.875 l 0,-5.77" /><path
             id="path84"
             style="fill:#0d4d84;fill-opacity:1;fill-rule:nonzero;stroke:none"
             d="m 1416.38,138.418 c -4.69,-1.477 -8.71,-2.277 -14.34,-2.277 -23.88,0 -31.94,15.441 -31.94,35.441 0,20.957 10.33,31.426 26.04,31.426 15.82,0 21.99,-9.668 21.99,-21.211 l -11.54,0 c 0,5.105 0,15.84 -11.13,15.84 -11.27,0 -14.22,-13.028 -14.22,-23.633 0,-13.691 5.77,-31.418 24.28,-31.418 5.24,0 7.24,0.801 10.86,1.738 l 0,-5.906" /><path
             id="path86"
             style="fill:#0d4d84;fill-opacity:1;fill-rule:nonzero;stroke:none"
             d="m 1444.12,230.273 9.93,0 0,-45.918 0.26,0 c 1.89,5.086 8.32,18.653 21.6,18.653 8.31,0 16.37,-5.227 16.37,-18.125 l 0,-47.278 -9.92,0 0,42.844 c 0,7.391 -1.35,14.375 -9.53,14.375 -11.95,0 -18.78,-17.187 -18.78,-28.867 l 0,-28.352 -9.93,0 0,92.668" /><path
             id="path88"
             style="fill:#0d4d84;fill-opacity:1;fill-rule:nonzero;stroke:none"
             d="m 1524.55,201.543 9.65,0 0,-15.723 0.27,0 c 3.89,8.055 10.33,17.188 22.94,17.188 11.13,0 15.3,-9.668 15.3,-16.789 l 0,-48.614 -9.93,0 0,41.368 c 0,6.847 0,15.851 -8.85,15.851 -13.43,0 -19.46,-17.461 -19.46,-29.816 l 0,-27.403 -9.92,0 0,63.938" /><path
             id="path90"
             style="fill:#0d4d84;fill-opacity:1;fill-rule:nonzero;stroke:none"
             d="m 1628.49,141.512 c 13.82,0 16.64,13.828 16.64,26.984 0,13.965 -2.82,29.141 -16.64,29.141 -13.68,0 -15.96,-15.176 -15.96,-29.141 0,-13.156 2.28,-26.984 15.96,-26.984 z m -27.09,27.394 c 0,20.41 8.05,34.102 27.09,34.102 19.05,0 27.77,-13.692 27.77,-34.102 0,-20.683 -8.72,-32.765 -27.77,-32.765 -19.04,0 -27.09,12.082 -27.09,32.765" /><path
             id="path92"
             style="fill:#0d4d84;fill-opacity:1;fill-rule:nonzero;stroke:none"
             d="m 1685.26,137.605 9.9297,0 0,92.668 -9.9297,0 0,-92.668 z" /><path
             id="path94"
             style="fill:#0d4d84;fill-opacity:1;fill-rule:nonzero;stroke:none"
             d="m 1751.44,141.512 c 13.81,0 16.63,13.828 16.63,26.984 0,13.965 -2.82,29.141 -16.63,29.141 -13.68,0 -15.97,-15.176 -15.97,-29.141 0,-13.156 2.29,-26.984 15.97,-26.984 z m -27.1,27.394 c 0,20.41 8.05,34.102 27.1,34.102 19.05,0 27.76,-13.692 27.76,-34.102 0,-20.683 -8.71,-32.765 -27.76,-32.765 -19.05,0 -27.1,12.082 -27.1,32.765" /><path
             id="path96"
             style="fill:#0d4d84;fill-opacity:1;fill-rule:nonzero;stroke:none"
             d="m 1829.54,144.063 c 10.87,0 15.42,14.363 15.42,26.316 0,11.418 -4.29,26.191 -15.56,26.191 -10.6,0 -13.82,-15.047 -13.82,-26.191 0,-11.016 3.36,-26.316 13.96,-26.316 z m 25.35,-6.856 c 0,-19.465 -9.93,-28.32 -29.39,-28.32 -6.83,0 -12.47,1.062 -16.62,2.41 l 0,11.016 c 5.5,-3.094 11.12,-6.055 18.64,-6.055 17.44,0 17.44,16.926 17.44,21.621 l 0,12.629 -0.26,0 c -0.95,-4.16 -5.92,-12.903 -17.18,-12.903 -16.23,0 -23.07,15.45 -23.07,33.313 0,17.859 7.24,32.09 22.67,32.09 12.21,0 15.83,-9.387 17.58,-13.567 l 0.26,0 0,12.102 9.93,0 0,-64.336" /><path
             id="path98"
             style="fill:#0d4d84;fill-opacity:1;fill-rule:nonzero;stroke:none"
             d="m 1905.08,137.207 -25.35,64.336 11.13,0 19.46,-50.234 17.44,50.234 10.06,0 -32.46,-89.57 -8.99,0 8.71,25.234" /></g></g></g></g></svg>